<svg height="512pt" viewBox="0 0 512.1 512" width="512pt" xmlns="http://www.w3.org/2000/svg"><path d="m503.5 256.050781c0 6.5-2.699219 12.703125-7.398438 17.101563-2.5 2.5-5.5 4.300781-8.800781 5.398437-6.101562 2-12.699219 2-18.800781 0-1.101562-.296875-2.199219-.796875-3.398438-1-9.703124-2.898437-19.800781-4.398437-29.902343-4.398437h-9.398438c.597657-5.699219.898438-11.398438.898438-17.101563v-1.5c-.097657-5.296875-.300781-10.5-.898438-15.597656h9.398438c10.101562 0 20.199219-1.5 29.902343-4.402344 1.199219-.296875 2.296876-.699219 3.398438-1 6.101562-2 12.699219-2 18.800781 0 3.300781 1.101563 6.300781 2.902344 8.800781 5.402344 4.398438 4.097656 7 9.699219 7.296876 15.597656.101562.5.101562 1 .101562 1.5zm0 0" fill="#e3e7f2"/><path d="m478.699219 256.050781c0 6.5-2.699219 12.703125-7.398438 17.101563-1.800781 1.800781-3.902343 3.300781-6.199219 4.398437-9.703124-2.898437-19.800781-4.398437-29.902343-4.398437h-9.398438c.597657-5.699219.898438-11.398438.898438-17.101563v-1.5c-.097657-5.296875-.300781-10.5-.898438-15.597656h9.398438c10.101562 0 20.199219-1.5 29.902343-4.402344 2.296876 1.101563 4.398438 2.601563 6.199219 4.402344 4.398438 4.097656 7 9.699219 7.300781 15.597656.097657.5.097657 1 .097657 1.5zm0 0" fill="#e3e7f2"/><path d="m9.101562 254.550781-.601562 1.5c0-.5 0-1 .101562-1.5zm0 0" fill="#fac176"/><path d="m9.101562 254.550781-.601562 1.5c0-.5 0-1 .101562-1.5zm0 0" fill="#f29c1f"/><path d="m85.300781 256.050781c0 5.703125.300781 11.402344.898438 17.101563h-9.398438c-11.300781 0-22.5 1.800781-33.300781 5.398437-6.101562 2-12.699219 2-18.800781 0-3.300781-1.097656-6.300781-2.898437-8.800781-5.398437-4.699219-4.398438-7.398438-10.601563-7.398438-17.101563l.601562-1.5h-.5c.097657-1.398437.296876-2.898437.699219-4.296875 0-.101562 0-.203125.097657-.300781.203124-.699219.402343-1.300781.601562-2 1.300781-3.402344 3.300781-6.5 6-9 2.5-2.5 5.5-4.300781 8.800781-5.402344 6.097657-2 12.699219-2 18.800781 0 10.699219 3.601563 22 5.402344 33.296876 5.402344h9.402343c-.5 5.097656-.800781 10.300781-.902343 15.597656v1.5zm0 0" fill="#e3e7f2"/><path d="m401.101562 256.050781c0-6.097656-.402343-12.097656-1.203124-18.097656h-100.097657l70.800781-70.800781c-7.402343-9.601563-16-18.199219-25.703124-25.699219l-70.699219 70.699219v-100c-12-1.601563-24.199219-1.601563-36.300781 0v100.101562l-70.699219-70.703125c-9.597657 7.402344-18.199219 16-25.699219 25.703125l65.5 65.5 5.300781 5.296875h-100.199219c-1.601562 12-1.601562 24.203125 0 36.300781h100.097657l-70.699219 70.699219c7.398438 9.601563 16 18.203125 25.699219 25.703125l70.800781-70.800781v100.097656c12 1.601563 24.199219 1.601563 36.300781 0v-100.199219l70.800781 70.800782c9.597657-7.398438 18.199219-16 25.699219-25.699219l-70.699219-70.699219h100.097657c.5-6.101562.902343-12.101562.902343-18.203125zm-145.101562 18.101563c-10 0-18.101562-8.101563-18.101562-18.101563s8.101562-18.097656 18.101562-18.097656 18.101562 8.097656 18.101562 18.097656-8.101562 18.101563-18.101562 18.101563zm0 0" fill="#e3e7f2"/><path d="m425.800781 238.953125c-8.199219-80.699219-72-144.5-152.699219-152.699219-5.703124-.601562-11.402343-.902344-17.101562-.902344-4.398438 0-8.601562.199219-12.800781.5 1.5.101563 2.800781.199219 4.300781.300782 80.699219 8.199218 144.5 72 152.699219 152.699218 1.101562 11.300782 1.101562 22.800782 0 34.101563-8.199219 80.699219-72 144.5-152.699219 152.699219-1.5.199218-2.800781.300781-4.300781.300781 4.199219.300781 8.402343.5 12.800781.5 5.699219 0 11.398438-.300781 17.101562-.902344 80.699219-8.199219 144.5-72 152.699219-152.699219 1.199219-11.097656 1.199219-22.5 0-33.898437zm0 0" fill="#a4c2f7"/><path d="m400.199219 238.953125c-8.199219-80.699219-72-144.5-152.699219-152.699219-1.5-.203125-2.800781-.300781-4.300781-.300781-1.5.097656-2.800781.199219-4.300781.300781-80.699219 8.199219-144.5 72-152.699219 152.699219-1.097657 11.300781-1.097657 22.800781 0 34.097656 8.199219 80.703125 72 144.5 152.699219 152.703125 1.5.199219 2.800781.296875 4.300781.296875 1.5-.097656 2.800781-.199219 4.300781-.296875 80.699219-8.203125 144.5-72 152.699219-152.703125 1.199219-11.296875 1.199219-22.699219 0-34.097656zm-8.800781 34.199219c-7.898438 61.800781-56.597657 110.5-118.398438 118.398437-5.699219.800781-11.398438 1.101563-17.101562 1.101563-4.296876 0-8.597657-.199219-12.796876-.699219-1.5-.101563-2.902343-.300781-4.300781-.402344-61.800781-7.898437-110.5-56.597656-118.402343-118.398437-1.5-11.300782-1.5-22.800782 0-34.101563 7.902343-61.796875 56.601562-110.5 118.402343-118.398437 1.398438-.199219 2.800781-.300782 4.300781-.398438 4.199219-.5 8.5-.703125 12.796876-.703125 5.703124 0 11.402343.300781 17.101562 1.101563 61.800781 7.898437 110.5 56.601562 118.398438 118.398437 1.5 11.300781 1.5 22.703125 0 34.101563zm0 0" fill="#e3e7f2"/><path d="m280 34.152344c0 3.199218-.5 6.398437-1.5 9.398437-3.601562 10.703125-5.398438 22-5.398438 33.300781v9.402344c-11.300781-1.101562-22.800781-1.101562-34.101562 0v-9.402344c0-11.300781-1.800781-22.5-5.398438-33.300781-2-6.097656-2-12.699219 0-18.796875 1.097657-3.300781 2.898438-6.300781 5.398438-8.800781 4.398438-4.699219 10.601562-7.402344 17.101562-7.402344s12.699219 2.703125 17.097657 7.402344c2.5 2.5 4.300781 5.5 5.402343 8.800781.898438 3.097656 1.398438 6.199219 1.398438 9.398438zm0 0" fill="#e3e7f2"/><path d="m256 8.550781c-6.5 0-12.699219 2.703125-17.101562 7.402344" fill="#fac176"/><path d="m273.101562 16.050781c-4.402343-4.699219-10.601562-7.398437-17.101562-7.398437" fill="#fac176"/><path d="m256 503.550781c-6.5 0-12.699219-2.699219-17.101562-7.398437" fill="#f29c1f"/><path d="m273.101562 496.050781c-4.402343 4.703125-10.601562 7.402344-17.101562 7.402344" fill="#f29c1f"/><path d="m280 477.953125c0 3.199219-.5 6.398437-1.5 9.398437-1.101562 3.300782-2.898438 6.300782-5.398438 8.800782-4.402343 4.699218-10.601562 7.398437-17.101562 7.398437s-12.699219-2.699219-17.101562-7.398437c-2.5-2.5-4.296876-5.5-5.398438-8.800782-2-6.097656-2-12.699218 0-18.800781 3.601562-10.699219 5.398438-22 5.398438-33.296875v-9.402344c11.300781 1.101563 22.800781 1.101563 34.101562 0v9.402344c0 11.296875 1.800781 22.5 5.398438 33.296875 1.101562 3 1.601562 6.203125 1.601562 9.402344zm0 0" fill="#e3e7f2"/><path d="m8.5 256.050781c0-6.5 2.699219-12.699219 7.398438-17.097656" fill="#fac176"/><path d="m16 273.152344c-4.699219-4.398438-7.398438-10.601563-7.398438-17.101563" fill="#f29c1f"/><path d="m437.800781 98.351562c0 3.5-.902343 7-2.5 10.101563-2.902343 5.699219-7.5 10.398437-13.199219 13.199219-10.101562 5.101562-19.402343 11.800781-27.402343 19.800781l-6.597657 6.597656c-3.601562-4.398437-7.402343-8.5-11.5-12.597656l-.703124-.699219c-3.796876-3.800781-7.898438-7.402344-11.898438-10.800781l6.601562-6.601563c8-8 14.699219-17.300781 19.796876-27.398437 2.800781-5.699219 7.5-10.402344 13.203124-13.199219 2.199219-1.101562 4.5-1.902344 6.898438-2.203125 1-.199219 2.101562-.296875 3.199219-.296875 6.5-.203125 12.699219 2.199219 17.300781 6.796875 4.601562 4.601563 7.101562 10.800781 6.800781 17.300781zm0 0" fill="#e3e7f2"/><path d="m418.101562 92.453125c0 3.5-.800781 6.898437-2.402343 10-1.398438 2.898437-3.300781 5.5-5.597657 7.800781-2.203124 2.296875-4.800781 4.097656-7.703124 5.5-9.796876 4.898438-18.699219 11.296875-26.5 18.898438-3.796876-3.800782-7.898438-7.398438-11.898438-10.800782l6.601562-6.597656c8-8 14.699219-17.300781 19.796876-27.402344 2.800781-5.699218 7.5-10.398437 13.203124-13.199218 2.199219-1.101563 4.5-1.898438 6.898438-2.199219.300781.199219.5.398437.800781.699219 4.597657 4.601562 7.097657 10.800781 6.800781 17.300781zm0 0" fill="#e3e7f2"/><path d="m116.101562 429.851562c-2.300781 2.300782-4.902343 4.101563-7.703124 5.5-3.097657 1.601563-6.5 2.402344-10 2.402344-6.5.199219-12.699219-2.300781-17.296876-6.800781-4.601562-4.601563-7-10.800781-6.800781-17.300781 0-3.5.800781-6.898438 2.398438-10 2.902343-5.800782 7.5-10.398438 13.300781-13.300782 10.101562-5.097656 19.300781-11.699218 27.300781-19.699218l6.597657-6.601563c7.203124 8.800781 15.300781 16.902344 24.101562 24.101563l-6.601562 6.601562c-8 8-14.699219 17.199219-19.699219 27.296875-1.5 2.902344-3.398438 5.601563-5.597657 7.800781zm0 0" fill="#e3e7f2"/><path d="m437.800781 413.753906c.199219 6.5-2.199219 12.699219-6.800781 17.296875-4.601562 4.601563-10.898438 7.101563-17.300781 6.800781-1.097657 0-2.097657-.097656-3.199219-.300781-2.398438-.398437-4.699219-1.097656-6.898438-2.199219-5.703124-2.898437-10.402343-7.5-13.203124-13.199218-5.097657-10.101563-11.796876-19.398438-19.796876-27.398438l-6.601562-6.601562c4.101562-3.398438 8.101562-7 11.898438-10.800782l.703124-.699218c4.097657-4.101563 7.898438-8.300782 11.5-12.601563l6.597657 6.601563c8 8 17.300781 14.699218 27.402343 19.800781 5.699219 2.800781 10.398438 7.5 13.199219 13.199219 1.699219 3.101562 2.5 6.601562 2.5 10.101562zm0 0" fill="#e3e7f2"/><path d="m418.101562 419.652344c.199219 6.5-2.203124 12.800781-6.800781 17.300781-.199219.300781-.5.5-.800781.699219-2.398438-.398438-4.699219-1.101563-6.898438-2.199219-5.703124-2.902344-10.402343-7.5-13.203124-13.199219-5.097657-10.101562-11.796876-19.402344-19.796876-27.402344l-6.601562-6.597656c4.101562-3.402344 8.101562-7 11.898438-10.800781 7.800781 7.699219 16.703124 14.097656 26.5 18.898437 5.800781 2.902344 10.402343 7.5 13.300781 13.300782 1.601562 3.101562 2.402343 6.5 2.402343 10zm0 0" fill="#e3e7f2"/><path d="m431 431.050781c4.601562-4.597656 7.101562-10.796875 6.800781-17.296875" fill="#f29c1f"/><path d="m413.699219 437.851562c6.5.199219 12.699219-2.199218 17.300781-6.800781" fill="#f29c1f"/><path d="m81 81.050781c4.601562-4.597656 10.800781-7.097656 17.300781-6.796875" fill="#fac176"/><path d="m74.199219 98.351562c-.199219-6.398437 2.300781-12.699218 6.902343-17.300781" fill="#fac176"/><path d="m82.199219 116.152344c-2.300781-2.300782-4.097657-4.898438-5.5-7.699219-1.597657-3.101563-2.398438-6.5-2.398438-10-.199219-6.5 2.300781-12.699219 6.800781-17.300781 4.597657-4.601563 10.796876-7 17.296876-6.800782 3.5 0 6.902343.800782 10 2.402344 5.800781 2.898438 10.402343 7.5 13.300781 13.296875 5.101562 10.101563 11.699219 19.300781 19.699219 27.300781l6.601562 6.601563c-8.800781 7.199219-16.898438 15.300781-24.101562 24.097656l-6.597657-6.597656c-8-8-17.199219-14.699219-27.300781-19.699219-3-1.5-5.601562-3.402344-7.800781-5.601562zm0 0" fill="#e3e7f2"/><path d="m98.300781 437.851562c3.5 0 6.898438-.800781 10-2.398437.800781-.402344 1.398438-.902344 2.097657-1.300781-6.898438-4.5-10.898438-12.199219-10.597657-20.398438 0-3.5.800781-6.902344 2.398438-10 2.902343-5.800781 7.5-10.402344 13.300781-13.300781 7.199219-3.601563 14-8.101563 20.300781-13.300781-.101562-.101563-.300781-.199219-.402343-.398438-4-4-7.898438-8.203125-11.5-12.703125l-6.597657 6.601563c-8 8-17.199219 14.699218-27.300781 19.699218-5.800781 2.800782-10.5 7.5-13.398438 13.300782-1.601562 3.101562-2.402343 6.601562-2.402343 10-.199219 6.5 2.199219 12.699218 6.800781 17.300781 4.601562 4.597656 10.898438 7.097656 17.300781 6.898437zm0 0" fill="#fff"/><path d="m110.898438 256.050781c0-.898437.101562-1.699219.101562-2.597656 0 .398437-.101562.699219-.101562 1.097656zm0 0" fill="#fff"/><path d="m149.5 363.953125c-21.300781-25.902344-34.398438-57.5-37.699219-90.902344h-9.402343c-5.398438 0-10.699219.402344-16 1.203125 4.203124 38.898438 21.601562 75.199219 49.402343 102.699219 2.398438-2 4.800781-4.101563 7-6.402344z" fill="#fff"/><path d="m149.5 148.050781-6.601562-6.597656c-2.199219-2.199219-4.597657-4.402344-7-6.402344-27.796876 27.5-45.296876 63.800781-49.398438 102.703125 5.300781.796875 10.699219 1.199219 16 1.199219h9.398438c3.203124-33.300781 16.300781-65 37.601562-90.902344" fill="#fff"/><path d="m82.199219 116.152344c2.199219 2.300781 4.800781 4.101562 7.699219 5.601562 10.101562 5.097656 19.300781 11.699219 27.300781 19.699219l6.601562 6.597656c3.597657-4.398437 7.398438-8.699219 11.5-12.699219.097657-.097656.300781-.199218.398438-.398437-6.199219-5.199219-13-9.699219-20.300781-13.300781-5.699219-2.898438-10.398438-7.5-13.199219-13.199219-1.597657-3.101563-2.398438-6.5-2.398438-10-.199219-6.5 2.199219-12.699219 6.800781-17.300781 1.199219-1.199219 2.398438-2.199219 3.796876-3.101563h.101562c-.699219-.398437-1.398438-.898437-2.101562-1.296875-3.097657-1.601562-6.5-2.402344-10-2.402344-4.796876-.199218-9.5 1.101563-13.5 3.699219-1.398438.902344-2.597657 1.902344-3.796876 3.101563-4.601562 4.601562-7.101562 10.800781-6.800781 17.300781 0 3.5.800781 6.898437 2.398438 10 1.300781 2.800781 3.199219 5.398437 5.5 7.699219zm0 0" fill="#fff"/><path d="m24.699219 278.453125c6.101562 2 12.699219 2 18.800781 0 1.398438-.5 2.800781-.902344 4.199219-1.199219-2.300781-1-4.398438-2.402344-6.199219-4.203125-4.699219-4.398437-7.398438-10.597656-7.398438-17.097656 0-.5 0-1 .097657-1.5 0-.699219.101562-1.5.300781-2.199219 0-.101562.101562-.300781.101562-.402344.097657-.5.199219-1 .296876-1.5v-.097656c0-.101562 0-.203125.101562-.300781.199219-.699219.398438-1.300781.601562-2 .097657-.199219.199219-.300781.199219-.402344.5-1.296875 1.097657-2.5 1.898438-3.699219.199219-.300781.300781-.597656.5-.898437 1-1.402344 2.101562-2.800781 3.402343-4 1.796876-1.699219 3.898438-3.101563 6.199219-4.199219-1.402343-.402344-2.800781-.800781-4.199219-1.203125-6.101562-2-12.703124-2-18.800781 0-3.300781 1.101563-6.300781 2.902344-8.800781 5.402344-1.300781 1.199219-2.398438 2.5-3.398438 4-.203124.300781-.300781.597656-.5.898437-.703124 1.199219-1.402343 2.402344-1.902343 3.699219-.097657.203125-.199219.300781-.199219.5-.199219.601563-.398438 1.300781-.601562 2-.097657.101563-.097657.203125-.097657.300781v.101563c-.101562.5-.199219 1-.300781 1.5 0 .097656-.101562.300781-.101562.398437-.097657.699219-.199219 1.5-.296876 2.199219-.101562.5-.101562 1-.101562 1.5 0 6.5 2.699219 12.703125 7.398438 17.101563 2.5 2.398437 5.5 4.300781 8.800781 5.300781zm0 0" fill="#fff"/><path d="m111.800781 238.953125c-.5 4.800781-.699219 9.597656-.800781 14.5.101562-4.902344.300781-9.699219.800781-14.5zm0 0" fill="#fff"/><g fill="#428dff"><path d="m214.800781 247.550781h-7c-3.300781 0-6.402343-1.898437-7.800781-5-1.398438-3-.898438-6.597656 1.300781-9.097656.199219-3.300781 2.398438-6.199219 5.5-7.402344 3.097657-1.199219 6.699219-.398437 9 2l4.898438 4.902344c2.402343 2.398437 3.199219 6.097656 1.800781 9.300781-1.199219 3.199219-4.300781 5.296875-7.699219 5.296875zm0 0"/><path d="m209.800781 286.550781c-4.5 0-8.199219-3.398437-8.5-7.898437-2.199219-2.5-2.699219-6.101563-1.300781-9.101563s4.398438-5 7.800781-5h7c3.5 0 6.597657 2.101563 7.898438 5.300781 1.300781 3.199219.601562 6.902344-1.800781 9.300782l-4.898438 4.898437c-1.699219 1.601563-3.898438 2.5-6.199219 2.5zm0 0"/><path d="m238.898438 223.351562c-2.296876 0-4.398438-.898437-6-2.5l-4.898438-4.898437c-2.398438-2.402344-3.101562-5.902344-2-9 1.199219-3.101563 4-5.300781 7.398438-5.5 2.5-2.199219 6.101562-2.699219 9.101562-1.300781 3 1.398437 5 4.398437 5 7.800781v7c0 4.597656-3.898438 8.398437-8.601562 8.398437zm0 0"/><path d="m238.898438 312.753906c-2 0-4-.703125-5.597657-2.101562-3.300781-.300782-6.199219-2.398438-7.300781-5.5-1.199219-3.101563-.398438-6.601563 1.898438-9l4.902343-4.898438c2.398438-2.402344 6.097657-3.203125 9.300781-1.902344 3.199219 1.300782 5.296876 4.402344 5.296876 7.800782v7c.101562 4.800781-3.796876 8.601562-8.5 8.601562zm0 0"/><path d="m273.101562 312.753906c-4.703124 0-8.5-3.800781-8.5-8.5v-7c0-3.5 2.097657-6.601562 5.296876-7.902344 3.203124-1.300781 6.902343-.597656 9.300781 1.800782l4.902343 4.898437c2.296876 2.402344 3.097657 5.902344 1.898438 9-1.199219 3.101563-4 5.300781-7.300781 5.5-1.597657 1.5-3.597657 2.203125-5.597657 2.203125zm0 0"/><path d="m273.101562 223.351562c-4.703124 0-8.5-3.800781-8.5-8.5v-7c0-3.300781 1.898438-6.398437 5-7.800781 3-1.398437 6.597657-.898437 9.097657 1.300781 3.300781.199219 6.199219 2.402344 7.402343 5.5 1.199219 3.101563.398438 6.699219-2 9l-4.902343 4.902344c-1.699219 1.699219-3.898438 2.597656-6.097657 2.597656zm0 0"/><path d="m302.199219 286.550781c-2.300781 0-4.398438-.898437-6-2.5l-4.898438-4.898437c-2.402343-2.398438-3.199219-6.101563-1.800781-9.300782 1.300781-3.199218 4.398438-5.300781 7.898438-5.300781h7c3.300781 0 6.402343 1.902344 7.800781 5 1.402343 3 .902343 6.601563-1.300781 9.101563-.5 4.5-4.296876 8-8.699219 7.898437zm0 0"/><path d="m304.199219 247.550781h-7c-3.5 0-6.597657-2.097656-7.898438-5.296875-1.300781-3.203125-.601562-6.902344 1.800781-9.300781l4.898438-4.902344c2.398438-2.296875 5.898438-3.097656 9-1.898437 3.101562 1.199218 5.300781 4 5.5 7.300781 2.199219 2.5 2.699219 6.097656 1.300781 9.097656-1.199219 3-4.300781 5-7.601562 5zm0 0"/><path d="m256 281.652344c-14.101562 0-25.601562-11.5-25.601562-25.601563 0-14.097656 11.5-25.597656 25.601562-25.597656s25.601562 11.5 25.601562 25.597656c0 14.101563-11.5 25.601563-25.601562 25.601563zm0-34.101563c-4.699219 0-8.5 3.800781-8.5 8.5 0 4.703125 3.800781 8.5 8.5 8.5s8.5-3.796875 8.5-8.5c0-4.699219-3.800781-8.5-8.5-8.5zm0 0"/><path d="m273.101562 400.050781c-4.703124 0-8.5-3.796875-8.5-8.5v-94.199219c0-3.5 2.097657-6.597656 5.296876-7.898437 3.203124-1.300781 6.902343-.601563 9.300781 1.800781l66.601562 66.597656c1.699219 1.699219 2.699219 4.101563 2.5 6.601563s-1.402343 4.699219-3.300781 6.199219c-20.5 16-44.898438 26.199218-70.699219 29.398437-.5 0-.902343 0-1.199219 0zm8.5-82.199219v63.601563c16-3.300781 31.296876-9.601563 44.898438-18.699219zm-42.703124 82.199219c-.398438 0-.699219 0-1-.097656-25.796876-3.199219-50.296876-13.402344-70.699219-29.402344-1.898438-1.5-3.097657-3.796875-3.300781-6.199219-.199219-2.5.800781-4.800781 2.5-6.597656l66.601562-66.601562c2.398438-2.398438 6.101562-3.199219 9.300781-1.800782 3.199219 1.402344 5.300781 4.5 5.300781 7.902344v94.199219c-.101562 4.699219-4 8.597656-8.703124 8.597656zm-53.398438-37.296875c13.601562 9.097656 28.898438 15.398438 44.898438 18.699219v-63.601563zm178.300781-14.5c-2.300781 0-4.402343-.902344-6-2.5l-66.601562-66.601562c-2.398438-2.398438-3.199219-6.101563-1.800781-9.300782 1.300781-3.199218 4.402343-5.300781 7.902343-5.300781h94.199219c2.398438 0 4.800781 1 6.398438 2.902344 1.601562 1.800781 2.402343 4.300781 2.101562 6.699219-3.199219 25.800781-13.398438 50.300781-29.398438 70.699218-1.5 1.902344-3.800781 3.101563-6.203124 3.300782zm-46-66.601562 44.898438 44.898437c9.101562-13.597656 15.402343-28.898437 18.699219-44.898437zm-169.601562 66.601562h-.5c-2.398438-.203125-4.699219-1.300781-6.199219-3.300781-16-20.5-26.199219-44.902344-29.398438-70.699219-.300781-2.402344.398438-4.902344 2.097657-6.703125 1.601562-1.796875 4-2.898437 6.402343-2.898437h94.199219c3.5 0 6.597657 2.101562 7.898438 5.300781s.601562 6.898437-1.800781 9.300781l-66.597657 66.597656c-1.601562 1.5-3.800781 2.402344-6.101562 2.402344zm-17.597657-66.601562c3.296876 16 9.597657 31.300781 18.699219 44.898437l44.898438-44.898437zm260.796876-34.101563h-94.199219c-3.5 0-6.597657-2.097656-7.898438-5.296875-1.300781-3.203125-.601562-6.902344 1.800781-9.300781l66.597657-66.601563c1.699219-1.800781 4.101562-2.699218 6.601562-2.5 2.398438.199219 4.699219 1.300782 6.199219 3.300782 16 20.5 26.199219 44.898437 29.398438 70.699218.300781 2.402344-.5 4.902344-2.097657 6.699219-1.601562 1.902344-3.902343 3-6.402343 3zm-73.597657-17.097656h63.597657c-3.296876-16-9.597657-31.300781-18.699219-44.902344zm-103 17.097656h-94.199219c-2.402343 0-4.800781-1-6.402343-2.898437-1.597657-1.800782-2.398438-4.300782-2.097657-6.699219 3.199219-25.800781 13.398438-50.300781 29.398438-70.699219 1.5-1.902344 3.800781-3.101562 6.199219-3.300781 2.402343-.199219 4.800781.699219 6.601562 2.5l66.597657 66.597656c2.402343 2.402344 3.203124 6.101563 1.800781 9.300781-1.398438 3.101563-4.5 5.199219-7.898438 5.199219zm-84.199219-17.097656h63.597657l-44.898438-44.902344c-9.101562 13.601563-15.402343 28.902344-18.699219 44.902344zm142.5-7.101563c-4.703124 0-8.5-3.800781-8.5-8.5v-94.199218c0-2.398438 1-4.800782 2.898438-6.398438 1.800781-1.601562 4.300781-2.402344 6.699219-2.101562 25.800781 3.199218 50.300781 13.398437 70.699219 29.398437 1.902343 1.5 3.101562 3.800781 3.300781 6.203125.199219 2.5-.800781 4.796875-2.5 6.597656l-66.597657 66.601563c-1.601562 1.5-3.800781 2.398437-6 2.398437zm8.5-92.699218v63.601562l44.898438-44.902344c-13.601562-9.097656-28.898438-15.398437-44.898438-18.699218zm-42.703124 92.699218c-2.296876 0-4.398438-.898437-6-2.5l-66.597657-66.597656c-1.699219-1.703125-2.699219-4.101562-2.5-6.601562s1.398438-4.699219 3.300781-6.199219c20.5-16 44.898438-26.199219 70.699219-29.402344 2.398438-.296875 4.898438.5 6.699219 2.101563 1.800781 1.601562 2.898438 4 2.898438 6.398437v94.203125c.101562 4.796875-3.796876 8.597656-8.5 8.597656zm-53.398438-74 44.898438 44.902344v-63.601562c-16 3.300781-31.296876 9.601562-44.898438 18.699218zm0 0"/><path d="m256 435.253906c-6 0-12-.300781-18-.902344-84.699219-8.699218-151.699219-75.699218-160.300781-160.398437-1.199219-11.902344-1.199219-24 0-35.902344 6.601562-65.699219 48.699219-122.398437 109.699219-147.597656s130.902343-14.902344 182 26.898437c36.800781 30.101563 60.203124 73.5 65 120.800782 1.203124 11.898437 1.203124 23.898437 0 35.800781-8.597657 84.800781-75.597657 151.800781-160.398438 160.398437-6 .601563-12 .902344-18 .902344zm-125.398438-76.601562c41.5 50.699218 109.5 71.398437 172.199219 52.5 62.699219-18.898438 107.898438-73.699219 114.597657-138.898438.601562-5.402344.800781-10.800781.800781-16.203125 0-5.398437-.300781-10.796875-.800781-16.199219-5.898438-59.398437-44-110.800781-99.199219-133.597656-55.199219-22.800781-118.398438-13.5-164.699219 24.296875-8.398438 6.902344-16.101562 14.5-22.898438 22.902344-20.203124 24.597656-32.703124 54.699219-35.800781 86.398437v.101563c-1.101562 10.699219-1.101562 21.597656 0 32.300781v.097656c3 31.601563 15.5 61.601563 35.800781 86.300782zm125.398438 42.5c-6.101562 0-12.199219-.398438-18.199219-1.199219-65.601562-8.402344-117.300781-60.101563-125.699219-125.800781-1.601562-12.101563-1.601562-24.300782 0-36.398438 8.398438-65.601562 60.097657-117.300781 125.796876-125.703125 12.101562-1.597656 24.300781-1.597656 36.402343 0 65.597657 8.402344 117.300781 60.101563 125.699219 125.800781 1.601562 12 1.601562 24.199219 0 36.300782-8.398438 65.699218-60.101562 117.300781-125.800781 125.699218-6.097657.902344-12.097657 1.300782-18.199219 1.300782zm0-273.101563c-5.300781 0-10.601562.300781-15.898438 1-58 7.402344-103.601562 53-111.101562 110.902344-1.398438 10.597656-1.398438 21.300781 0 31.898437 7.398438 58 53 103.601563 110.898438 111.101563 10.601562 1.398437 21.300781 1.398437 31.902343 0 58-7.402344 103.597657-53 111.097657-110.902344v-.097656c1.402343-10.601563 1.402343-21.199219 0-31.800781-7.398438-58-53-103.601563-110.898438-111.101563-5.300781-.699219-10.601562-1-16-1zm0 0"/><path d="m273.101562 400.050781c-4.703124 0-8.5-3.796875-8.5-8.5v-94.199219c0-3.5 2.097657-6.597656 5.296876-7.898437 3.203124-1.300781 6.902343-.601563 9.300781 1.800781l66.601562 66.597656c1.699219 1.699219 2.699219 4.101563 2.5 6.601563s-1.402343 4.699219-3.300781 6.199219c-20.5 16-44.898438 26.199218-70.699219 29.398437-.5 0-.902343 0-1.199219 0zm8.5-82.199219v63.601563c16-3.300781 31.296876-9.601563 44.898438-18.699219zm-42.703124 82.199219c-.398438 0-.699219 0-1-.097656-25.796876-3.199219-50.296876-13.402344-70.699219-29.402344-1.898438-1.5-3.097657-3.796875-3.300781-6.199219-.199219-2.5.800781-4.800781 2.5-6.597656l66.601562-66.601562c2.398438-2.398438 6.101562-3.199219 9.300781-1.800782 3.199219 1.402344 5.300781 4.5 5.300781 7.902344v94.199219c-.101562 4.699219-4 8.597656-8.703124 8.597656zm-53.398438-37.296875c13.601562 9.097656 28.898438 15.398438 44.898438 18.699219v-63.601563zm178.300781-14.5c-2.300781 0-4.402343-.902344-6-2.5l-66.601562-66.601562c-2.398438-2.398438-3.199219-6.101563-1.800781-9.300782 1.300781-3.199218 4.402343-5.300781 7.902343-5.300781h94.199219c2.398438 0 4.800781 1 6.398438 2.902344 1.601562 1.800781 2.402343 4.300781 2.101562 6.699219-3.199219 25.800781-13.398438 50.300781-29.398438 70.699218-1.5 1.902344-3.800781 3.101563-6.203124 3.300782zm-46-66.601562 44.898438 44.898437c9.101562-13.597656 15.402343-28.898437 18.699219-44.898437zm-169.601562 66.601562h-.5c-2.398438-.203125-4.699219-1.300781-6.199219-3.300781-16-20.5-26.199219-44.902344-29.398438-70.699219-.300781-2.402344.398438-4.902344 2.097657-6.703125 1.601562-1.796875 4-2.898437 6.402343-2.898437h94.199219c3.5 0 6.597657 2.101562 7.898438 5.300781s.601562 6.898437-1.800781 9.300781l-66.597657 66.597656c-1.601562 1.5-3.800781 2.402344-6.101562 2.402344zm-17.597657-66.601562c3.296876 16 9.597657 31.300781 18.699219 44.898437l44.898438-44.898437zm260.796876-34.101563h-94.199219c-3.5 0-6.597657-2.097656-7.898438-5.296875-1.300781-3.203125-.601562-6.902344 1.800781-9.300781l66.597657-66.601563c1.699219-1.800781 4.101562-2.699218 6.601562-2.5 2.398438.199219 4.699219 1.300782 6.199219 3.300782 16 20.5 26.199219 44.898437 29.398438 70.699218.300781 2.402344-.5 4.902344-2.097657 6.699219-1.601562 1.902344-3.902343 3-6.402343 3zm-73.597657-17.097656h63.597657c-3.296876-16-9.597657-31.300781-18.699219-44.902344zm-103 17.097656h-94.199219c-2.402343 0-4.800781-1-6.402343-2.898437-1.597657-1.800782-2.398438-4.300782-2.097657-6.699219 3.199219-25.800781 13.398438-50.300781 29.398438-70.699219 1.5-1.902344 3.800781-3.101562 6.199219-3.300781 2.402343-.199219 4.800781.699219 6.601562 2.5l66.597657 66.597656c2.402343 2.402344 3.203124 6.101563 1.800781 9.300781-1.398438 3.101563-4.5 5.199219-7.898438 5.199219zm-84.199219-17.097656h63.597657l-44.898438-44.902344c-9.101562 13.601563-15.402343 28.902344-18.699219 44.902344zm142.5-7.101563c-4.703124 0-8.5-3.800781-8.5-8.5v-94.199218c0-2.398438 1-4.800782 2.898438-6.398438 1.800781-1.601562 4.300781-2.402344 6.699219-2.101562 25.800781 3.199218 50.300781 13.398437 70.699219 29.398437 1.902343 1.5 3.101562 3.800781 3.300781 6.203125.199219 2.5-.800781 4.796875-2.5 6.597656l-66.597657 66.601563c-1.601562 1.5-3.800781 2.398437-6 2.398437zm8.5-92.699218v63.601562l44.898438-44.902344c-13.601562-9.097656-28.898438-15.398437-44.898438-18.699218zm-42.703124 92.699218c-2.296876 0-4.398438-.898437-6-2.5l-66.597657-66.597656c-1.699219-1.703125-2.699219-4.101562-2.5-6.601562s1.398438-4.699219 3.300781-6.199219c20.5-16 44.898438-26.199219 70.699219-29.402344 2.398438-.296875 4.898438.5 6.699219 2.101563 1.800781 1.601562 2.898438 4 2.898438 6.398437v94.203125c.101562 4.796875-3.796876 8.597656-8.5 8.597656zm-53.398438-74 44.898438 44.902344v-63.601562c-16 3.300781-31.296876 9.601562-44.898438 18.699218zm0 0"/><path d="m256 281.652344c-14.101562 0-25.601562-11.5-25.601562-25.601563 0-14.097656 11.5-25.597656 25.601562-25.597656s25.601562 11.5 25.601562 25.597656c0 14.101563-11.5 25.601563-25.601562 25.601563zm0-34.101563c-4.699219 0-8.5 3.800781-8.5 8.5 0 4.703125 3.800781 8.5 8.5 8.5s8.5-3.796875 8.5-8.5c0-4.699219-3.800781-8.5-8.5-8.5zm0 0"/><path d="m273.101562 94.753906c-.300781 0-.601562 0-.902343-.101562-10.699219-1.101563-21.597657-1.101563-32.300781 0-2.398438.300781-4.796876-.5-6.597657-2.101563-1.800781-1.597656-2.800781-3.898437-2.800781-6.296875v-9.402344c0-10.398437-1.699219-20.699218-4.898438-30.597656-2.601562-7.800781-2.601562-16.300781 0-24.203125 1.5-4.597656 4-8.699219 7.398438-12.097656 6.101562-6.402344 14.5-10 23.300781-9.9023438 8.800781 0 17.199219 3.7031248 23.199219 10.2031248 3.300781 3.296875 5.800781 7.398438 7.199219 11.898438 2.601562 7.800781 2.601562 16.300781 0 24.199218-3.300781 9.902344-4.898438 20.199219-4.898438 30.601563v9.398437c-.199219 4.601563-4 8.402344-8.699219 8.402344zm-17.101562-77.601562c-4.101562 0-8 1.699218-10.800781 4.699218-1.597657 1.601563-2.800781 3.5-3.5 5.699219-1.5 4.300781-1.5 9 0 13.300781 3.902343 11.601563 5.800781 23.800782 5.800781 36v.199219c5.5-.199219 11.601562-.199219 17.101562 0v-.199219c0-12.199218 2-24.398437 5.796876-36 1.5-4.300781 1.5-9.097656 0-13.398437-.699219-2.101563-1.796876-3.902344-3.296876-5.5-2.902343-3-6.902343-4.800781-11.101562-4.800781zm0 0"/><path d="m238.898438 24.550781c-3.398438 0-6.5-2-7.796876-5.097656-1.402343-3.101563-.703124-6.699219 1.597657-9.199219 6-6.5 14.402343-10.2031248 23.300781-10.2031248 4.699219 0 8.5 3.8007808 8.5 8.4999998 0 4.703125-3.800781 8.5-8.5 8.5-4.101562 0-8 1.703125-10.800781 4.703125-1.597657 1.796875-3.898438 2.796875-6.300781 2.796875zm0 0"/><path d="m273.101562 24.550781c-2.402343 0-4.601562-1-6.300781-2.699219-2.800781-3-6.699219-4.699218-10.800781-4.699218-4.699219 0-8.5-3.800782-8.5-8.5 0-4.699219 3.800781-8.6015628 8.5-8.6015628 8.898438 0 17.300781 3.7031248 23.300781 10.2031248 2.300781 2.5 2.898438 6.097656 1.597657 9.199219-1.296876 3.097656-4.398438 5.097656-7.796876 5.097656zm0 0"/><path d="m256 393.550781c-5.699219 0-11.5-.398437-17.199219-1.097656-.5-.101563-.902343-.5-.902343-1v-91.800781l-64.898438 64.898437c-.398438.402344-.898438.402344-1.300781.101563-9.097657-7-17.300781-15.199219-24.300781-24.300782-.296876-.398437-.296876-1 .101562-1.300781l64.898438-64.898437h-91.796876c-.5 0-.902343-.398438-1-.898438-1.5-11.402344-1.5-23 0-34.402344.097657-.5.5-.898437 1-.898437h91.796876l-64.898438-64.902344c-.398438-.398437-.398438-.898437-.101562-1.296875 7-9.101562 15.203124-17.300781 24.300781-24.300781.402343-.300781 1-.300781 1.300781.097656l64.898438 64.902344v-91.800781c0-.5.402343-.898438.902343-1 11.398438-1.5 23-1.5 34.398438 0 .5.101562.902343.5.902343 1v91.800781l64.898438-64.902344c.398438-.398437.898438-.398437 1.300781-.097656 9.097657 7 17.300781 15.199219 24.300781 24.300781.296876.398438.296876 1-.101562 1.296875l-64.898438 64.902344h91.796876c.5 0 .902343.398437 1 .898437 1.5 11.402344 1.5 23 0 34.402344-.097657.5-.5.898438-1 .898438h-91.796876l64.898438 64.898437c.398438.402344.398438.902344.101562 1.300781-7 9.101563-15.203124 17.300782-24.300781 24.300782-.402343.300781-1 .300781-1.300781-.101563l-64.898438-64.898437v91.800781c0 .5-.402343.898437-.902343 1-5.699219.800781-11.5 1.097656-17.199219 1.097656zm-16.101562-3c10.703124 1.300781 21.5 1.300781 32.101562 0v-93.296875c0-.402344.199219-.800781.601562-.902344.398438-.199218.796876-.097656 1.097657.199219l65.902343 65.902344c8.5-6.601563 16.097657-14.300781 22.699219-22.699219l-65.902343-65.902344c-.296876-.300781-.398438-.699218-.199219-1.097656.199219-.402344.5-.601562.902343-.601562h93.296876c1.300781-10.699219 1.300781-21.5 0-32.101563h-93.296876c-.402343 0-.800781-.199219-.902343-.597656-.199219-.402344-.097657-.800781.199219-1.101563l65.902343-65.898437c-6.601562-8.5-14.300781-16.101563-22.699219-22.699219l-65.902343 65.898438c-.300781.300781-.699219.398437-1.097657.199218-.402343-.199218-.601562-.5-.601562-.898437v-93.300781c-10.699219-1.300782-21.5-1.300782-32.101562 0v93.300781c0 .398437-.199219.800781-.597657.898437-.402343.199219-.800781.101563-1.101562-.199218l-65.898438-65.898438c-8.5 6.597656-16.101562 14.296875-22.699219 22.699219l65.898438 65.898437c.300781.300782.398438.699219.199219 1.101563-.199219.398437-.5.597656-.898438.597656h-93.300781c-1.300781 10.703125-1.300781 21.5 0 32.101563h93.300781c.398438 0 .800781.199218.898438.601562.101562.398438.101562.796875-.199219 1.097656l-65.898438 65.902344c6.597657 8.5 14.296876 16.097656 22.699219 22.699219l65.898438-65.902344c.300781-.296875.699219-.398437 1.101562-.199219.398438.199219.597657.5.597657.902344zm16.101562-116.398437c-10 0-18.101562-8.101563-18.101562-18.101563s8.101562-18.097656 18.101562-18.097656 18.101562 8.097656 18.101562 18.097656c-.101562 9.902344-8.203124 18-18.101562 18.101563zm0-34.199219c-8.898438 0-16.101562 7.199219-16.101562 16.097656 0 8.902344 7.203124 16.101563 16.101562 16.101563 8.800781 0 16-7.199219 16.101562-16.101563 0-8.898437-7.203124-16.097656-16.101562-16.097656zm0 0"/><path d="m256 512.050781c-8.898438 0-17.300781-3.699219-23.300781-10.199219-2.097657-2.199218-2.898438-5.398437-2-8.398437.902343-2.902344 3.300781-5.199219 6.300781-5.800781 3-.699219 6.101562.300781 8.199219 2.601562 2.800781 3 6.699219 4.699219 10.800781 4.699219 4.699219 0 8.5 3.800781 8.5 8.5 0 4.800781-3.800781 8.597656-8.5 8.597656zm0 0"/><path d="m256 512.050781c-4.699219 0-8.5-3.796875-8.5-8.5 0-4.699219 3.800781-8.5 8.5-8.5 4.101562 0 8-1.699219 10.800781-4.699219 2.097657-2.300781 5.199219-3.300781 8.199219-2.597656 3 .699219 5.398438 2.898438 6.300781 5.796875.898438 2.902344.097657 6.101563-2 8.402344-6 6.398437-14.402343 10.097656-23.300781 10.097656zm0 0"/><path d="m256 512.050781c-8.898438 0-17.300781-3.699219-23.300781-10.199219-3.300781-3.300781-5.800781-7.398437-7.199219-11.898437-2.601562-7.902344-2.601562-16.300781 0-24.199219 3.300781-9.902344 4.898438-20.203125 4.898438-30.5v-9.402344c0-2.398437 1-4.699218 2.800781-6.300781 1.800781-1.597656 4.199219-2.398437 6.601562-2.199219 10.800781 1.101563 21.597657 1.101563 32.300781 0 2.398438-.199218 4.796876.5 6.597657 2.199219 1.800781 1.601563 2.800781 3.902344 2.800781 6.300781v9.402344c0 10.398438 1.699219 20.699219 4.898438 30.597656 2.601562 7.800782 2.601562 16.300782 0 24.199219-1.5 4.601563-4 8.703125-7.398438 12.101563-5.898438 6.300781-14.300781 9.898437-23 9.898437zm-8.5-77v.203125c0 12.199219-2 24.398438-5.800781 36-1.5 4.296875-1.5 9 0 13.398438.699219 2.101562 1.800781 3.898437 3.300781 5.5 2.800781 3 6.699219 4.699218 10.898438 4.800781 4.101562 0 8.101562-1.601563 11-4.5 1.601562-1.601563 2.800781-3.5 3.5-5.699219 1.5-4.300781 1.5-9 0-13.402344-3.898438-11.597656-5.796876-23.800781-5.796876-36v-.300781c-5.601562.300781-11.601562.300781-17.101562 0zm0 0"/><path d="m477.898438 288.550781c-4.097657 0-8.199219-.699219-12.097657-2-9.902343-3.296875-20.199219-4.898437-30.601562-4.898437h-9.398438c-2.402343 0-4.699219-1-6.300781-2.800782-1.601562-1.800781-2.398438-4.199218-2.101562-6.597656 1.101562-10.703125 1.101562-21.601562 0-32.300781-.296876-2.402344.5-4.800781 2.101562-6.601563 1.601562-1.800781 3.898438-2.800781 6.300781-2.800781h9.398438c10.402343 0 20.699219-1.699219 30.601562-4.898437 7.800781-2.601563 16.300781-2.601563 24.199219 0 4.601562 1.5 8.699219 4 12.101562 7.398437 6.398438 6.101563 10 14.5 9.898438 23.300781 0 8.800782-3.699219 17.199219-10.199219 23.199219-3.300781 3.300781-7.402343 5.800781-11.902343 7.203125-3.796876 1.097656-7.898438 1.796875-12 1.796875zm-42.898438-24h.199219c12.199219 0 24.402343 2 36 5.800781 4.300781 1.5 9.101562 1.5 13.402343 0 2.097657-.699218 3.898438-1.800781 5.5-3.300781 3.097657-2.796875 4.898438-6.796875 4.898438-11 0-4.097656-1.699219-8-4.699219-10.796875-1.601562-1.601562-3.5-2.800781-5.699219-3.5-4.300781-1.5-9-1.5-13.300781 0-11.601562 3.898438-23.800781 5.796875-36 5.796875h-.300781c.101562 2.800781.199219 5.601563.199219 8.5 0 2.902344-.097657 5.800781-.199219 8.5zm0 0"/><path d="m503.5 264.550781c-4.699219 0-8.5-3.796875-8.5-8.5 0-4.097656-1.699219-8-4.699219-10.796875-2.300781-2.101562-3.300781-5.203125-2.601562-8.203125s2.902343-5.398437 5.800781-6.296875c2.898438-.902344 6.101562-.101562 8.398438 2 6.5 6 10.203124 14.5 10.203124 23.296875-.101562 4.703125-3.902343 8.5-8.601562 8.5zm0 0"/><path d="m496 281.652344c-3.5 0-6.699219-2.199219-7.898438-5.398438-1.300781-3.300781-.402343-7 2.199219-9.402344 3-2.800781 4.699219-6.699218 4.699219-10.800781 0-4.699219 3.800781-8.5 8.5-8.5s8.5 3.800781 8.5 8.5c0 8.902344-3.699219 17.300781-10.199219 23.300781-1.5 1.5-3.601562 2.300782-5.800781 2.300782zm0 0"/><path d="m8.5 264.550781c-4.699219 0-8.5-3.796875-8.5-8.5 0-8.898437 3.699219-17.296875 10.199219-23.296875 3.5-3.101562 8.800781-2.902344 12 .597656 3.199219 3.402344 3 8.800782-.398438 12-3 2.800782-4.699219 6.699219-4.699219 10.800782 0 4.601562-3.902343 8.398437-8.601562 8.398437zm0 0"/><path d="m16 281.652344c-2.101562 0-4.199219-.800782-5.800781-2.300782-6.5-6-10.199219-14.398437-10.199219-23.300781 0-4.699219 3.800781-8.5 8.5-8.5s8.5 3.800781 8.5 8.5c0 4.101563 1.699219 8 4.699219 10.800781 2.601562 2.402344 3.402343 6.101563 2.199219 9.402344-1.296876 3.199219-4.398438 5.398438-7.898438 5.398438zm0 0"/><path d="m34.101562 288.550781c-4.101562 0-8.203124-.699219-12.101562-2-4.601562-1.5-8.699219-4-12.101562-7.398437-6.398438-6.101563-9.898438-14.5-9.898438-23.300782 0-8.800781 3.699219-17.199218 10.199219-23.199218 3.300781-3.300782 7.402343-5.800782 11.902343-7.199219 7.898438-2.601563 16.296876-2.601563 24.199219 0 9.898438 3.300781 20.199219 4.898437 30.5 4.898437h9.398438c2.402343 0 4.699219 1 6.402343 2.800782 1.699219 1.800781 2.398438 4.199218 2.199219 6.601562-1.101562 10.796875-1.101562 21.597656 0 32.296875.300781 2.402344-.5 4.800781-2.199219 6.601563-1.601562 1.800781-3.902343 2.800781-6.402343 2.800781h-9.398438c-10.402343 0-20.699219 1.699219-30.601562 4.898437-3.898438 1.5-8 2.199219-12.097657 2.199219zm0-47.898437c-2.300781 0-4.5.398437-6.601562 1.101562-2.101562.699219-3.898438 1.796875-5.5 3.296875-3.101562 2.800781-4.898438 6.800781-4.898438 11 0 4.101563 1.699219 8 4.699219 10.800781 1.597657 1.601563 3.5 2.800782 5.699219 3.5 4.300781 1.5 9 1.5 13.398438 0 11.601562-3.898437 23.800781-5.800781 36-5.800781h.101562c-.101562-2.796875-.199219-5.597656-.199219-8.5 0-2.898437.097657-5.796875.199219-8.5h-.199219c-12.199219 0-24.402343-2-36-5.796875-2.101562-.800781-4.402343-1.101562-6.699219-1.101562zm0 0"/><path d="m388.101562 156.550781h-.402343c-2.398438-.097656-4.699219-1.296875-6.199219-3.097656-6.800781-8.402344-14.5-16-22.898438-22.902344-1.902343-1.5-3-3.796875-3.203124-6.199219-.097657-2.398437.800781-4.800781 2.5-6.5l6.601562-6.597656c7.398438-7.402344 13.5-15.800781 18.199219-25.101562 3.699219-7.398438 9.699219-13.398438 17.101562-17.101563 4.300781-2.199219 9-3.296875 13.800781-3.296875 8.796876-.203125 17.296876 3.199219 23.398438 9.398438 6.101562 6.199218 9.5 14.699218 9.199219 23.5 0 4.699218-1.199219 9.300781-3.300781 13.5-1.796876 3.699218-4.199219 7-7.097657 9.898437-2.902343 2.902344-6.300781 5.300781-9.902343 7.203125-9.296876 4.699219-17.796876 10.796875-25.097657 18.097656l-6.601562 6.601563c-1.597657 1.699219-3.800781 2.597656-6.097657 2.597656zm-11.601562-33.097656c2 1.898437 4.101562 3.800781 6.199219 5.898437 2.101562 2.101563 4 4.101563 5.902343 6.199219l.097657-.097656c8.601562-8.601563 18.601562-15.902344 29.601562-21.300781 2-1 3.898438-2.300782 5.5-4 1.597657-1.601563 2.898438-3.5 4-5.5 1-1.898438 1.5-4 1.5-6.199219.199219-4.199219-1.300781-8.300781-4.300781-11.300781-2.898438-2.898438-6.898438-4.5-11-4.300782-2.300781 0-4.5.5-6.5 1.5-4.101562 2-7.398438 5.300782-9.398438 9.402344-5.5 10.898438-12.703124 20.898438-21.300781 29.597656zm0 0"/><path d="m97.199219 446.453125c-8.597657-.101563-16.800781-3.699219-22.699219-9.902344-5.898438-6.199219-9.101562-14.597656-8.800781-23.097656 0-4.699219 1.199219-9.300781 3.300781-13.5 3.699219-7.402344 9.699219-13.402344 17.101562-17.101563 9.296876-4.699218 17.796876-10.800781 25.097657-18.097656l6.601562-6.601562c1.699219-1.699219 4.097657-2.601563 6.5-2.5 2.398438.101562 4.699219 1.300781 6.199219 3.101562 6.800781 8.398438 14.5 16 22.898438 22.898438 1.902343 1.5 3 3.800781 3.203124 6.199218.097657 2.402344-.800781 4.800782-2.5 6.5l-6.601562 6.601563c-7.398438 7.398437-13.5 15.800781-18.199219 25.097656-3.699219 7.402344-9.699219 13.402344-17.101562 17.101563-4.300781 2.199218-9 3.300781-13.800781 3.300781-.398438 0-.796876 0-1.199219 0zm26.199219-69.902344-.097657.101563c-8.601562 8.601562-18.601562 15.898437-29.601562 21.300781-4.097657 2-7.398438 5.300781-9.5 9.398437-1 1.902344-1.5 4.101563-1.5 6.199219-.199219 4.101563 1.300781 8.203125 4.199219 11.203125 2.902343 3 6.902343 4.597656 11.101562 4.398438 2.300781 0 4.5-.5 6.5-1.5s3.898438-2.300782 5.5-4c1.601562-1.601563 2.898438-3.5 4-5.5 5.5-10.898438 12.699219-20.898438 21.300781-29.601563l.097657-.097656c-2-1.902344-4.097657-3.800781-6.199219-5.902344-2-1.898437-3.898438-3.898437-5.800781-6zm0 0"/><path d="m414.5 446.453125h-1.199219c-4.699219 0-9.300781-1.199219-13.5-3.300781-3.699219-1.800782-7-4.199219-9.902343-7.101563-2.898438-2.898437-5.296876-6.296875-7.199219-9.898437-4.699219-9.300782-10.800781-17.800782-18.097657-25.101563l-6.601562-6.597656c-1.699219-1.699219-2.601562-4.101563-2.5-6.5.101562-2.402344 1.300781-4.699219 3.199219-6.199219 8.402343-6.800781 16-14.5 22.902343-22.902344 1.5-1.898437 3.796876-3 6.199219-3.097656 2.398438-.101562 4.800781.796875 6.5 2.5l6.597657 6.597656c7.402343 7.402344 15.800781 13.5 25.101562 18.199219 7.398438 3.703125 13.398438 9.703125 17.101562 17.101563 2.199219 4.300781 3.296876 9 3.296876 13.800781.203124 8.597656-3 16.898437-9 23-6 6-14.296876 9.5-22.898438 9.5zm-38-57.800781.101562.101562c8.597657 8.597656 15.898438 18.597656 21.296876 29.597656 1 2 2.300781 3.902344 4 5.5 1.601562 1.601563 3.5 2.902344 5.5 4 2.101562 1 4.5 1.601563 6.800781 1.5 4 .101563 7.800781-1.5 10.699219-4.300781 2.902343-2.898437 4.5-6.898437 4.300781-11 0-2.296875-.5-4.5-1.5-6.5-2-4.097656-5.300781-7.398437-9.398438-9.398437-10.902343-5.5-20.902343-12.699219-29.601562-21.300782l-.097657-.097656c-1.902343 2-3.800781 4.097656-5.902343 6.199219-2.097657 2.097656-4.097657 3.800781-6.199219 5.699219zm0 0"/><path d="m431 439.550781c-3.398438 0-6.5-2.097656-7.898438-5.296875-1.300781-3.203125-.601562-6.800781 1.796876-9.300781 2.902343-2.902344 4.5-6.902344 4.300781-10.902344-.199219-4.699219 3.5-8.699219 8.199219-8.796875 2.300781-.203125 4.5.597656 6.203124 2.199219 1.699219 1.597656 2.597657 3.699219 2.699219 6 .300781 8.800781-3.101562 17.398437-9.300781 23.699219-1.601562 1.5-3.800781 2.398437-6 2.398437zm0 0"/><path d="m414.5 446.453125h-1.199219c-4.699219-.199219-8.402343-4.101563-8.199219-8.800781 0-2.300782 1-4.398438 2.699219-6 1.699219-1.5 3.898438-2.300782 6.199219-2.199219 4.101562.097656 8.101562-1.5 11-4.300781 2.199219-2.199219 5.300781-3 8.199219-2.199219 2.902343.800781 5.199219 3.097656 6 6 .800781 2.898437-.097657 6.097656-2.199219 8.199219-5.898438 5.898437-14 9.199218-22.5 9.300781zm0 0"/><path d="m81 89.550781c-3.5 0-6.601562-2.097656-7.898438-5.296875-1.300781-3.203125-.601562-6.902344 1.796876-9.300781 6.203124-6.300781 14.800781-9.601563 23.703124-9.300781 4.699219.199218 8.398438 4.101562 8.199219 8.800781 0 2.300781-1 4.5-2.699219 6-1.703124 1.597656-3.902343 2.300781-6.203124 2.199219-4.097657-.199219-8.097657 1.398437-11 4.300781-1.5 1.699219-3.597657 2.597656-5.898438 2.597656zm0 0"/><path d="m74.199219 106.953125c-4.597657 0-8.398438-3.601563-8.5-8.199219-.398438-8.902344 3-17.5 9.300781-23.703125 2.101562-2.296875 5.300781-3.296875 8.398438-2.5 3 .800781 5.402343 3.101563 6.203124 6.203125.796876 3-.203124 6.296875-2.5 8.398438-2.902343 2.898437-4.5 6.898437-4.300781 10.898437.199219 4.703125-3.5 8.703125-8.199219 8.800781zm0 0"/><path d="m123.898438 156.550781c-2.296876 0-4.398438-.898437-6-2.5l-6.597657-6.597656c-7.402343-7.402344-15.800781-13.5-25.101562-18.199219-7.398438-3.703125-13.398438-9.703125-17.097657-17.101562-2.203124-4.300782-3.300781-9-3.300781-13.800782-.199219-8.800781 3.199219-17.300781 9.398438-23.398437 6.199219-6.101563 14.699219-9.5 23.5-9.199219 4.699219 0 9.300781 1.199219 13.5 3.296875 7.402343 3.703125 13.402343 9.703125 17.101562 17.101563 4.699219 9.300781 10.800781 17.800781 18.097657 25.101562l6.601562 6.597656c1.699219 1.699219 2.601562 4.101563 2.5 6.5-.101562 2.402344-1.300781 4.699219-3.199219 6.199219-8.402343 6.800781-16 14.5-22.902343 22.902344-1.5 1.898437-3.796876 3-6.199219 3.097656zm-26.199219-73.796875c-4-.101562-7.800781 1.5-10.699219 4.296875-2.898438 2.902344-4.5 6.902344-4.300781 11 0 2.300781.5 4.5 1.5 6.5s2.300781 3.902344 4 5.5c1.601562 1.601563 3.5 2.902344 5.5 4 10.902343 5.5 20.902343 12.703125 29.601562 21.300781l.097657.101563c1.902343-2 3.800781-4.101563 5.902343-6.199219 2.097657-2.101562 4.097657-4 6.199219-5.902344l-.101562-.097656c-8.597657-8.601562-15.898438-18.601562-21.296876-29.601562-2-4.101563-5.300781-7.398438-9.402343-9.5-2.300781-.898438-4.597657-1.398438-7-1.398438zm0 0"/></g><path d="m77.699219 238.152344c3.5-35 17.300781-68.199219 39.601562-95.5l13.199219 10.800781c-20.199219 24.597656-32.601562 54.699219-35.800781 86.300781zm0 0" fill="#fff"/><path d="m93.398438 204.152344c-2-.800782-4.199219-.800782-6.097657.101562-1.902343.898438-3.402343 2.5-4.101562 4.5-2.597657 9.597656-4.5 19.5-5.5 29.398438l17 1.699218c.902343-9 2.601562-17.898437 4.902343-26.597656.597657-4.203125-2.101562-8.101562-6.203124-9.101562zm0 0" fill="#428dff"/><path d="m130.5 153.550781-13.199219-10.796875c-3.101562 3.898438-6.199219 7.898438-9 11.898438-1.101562 1.800781-1.300781 4-.800781 6.101562.601562 2 2 3.796875 3.898438 4.699219 3.402343 2.5 8.101562 2 10.902343-1.101563 2.597657-3.699218 5.398438-7.300781 8.199219-10.800781zm0 0" fill="#428dff"/><path d="m93.398438 180.652344c-.796876 1.898437-.699219 4 .101562 5.800781l.898438 1.300781c.300781.398438.703124.898438 1.203124 1.199219.398438.398437.796876.699219 1.296876 1s1 .597656 1.5.800781c2 .796875 4.300781 1 6.402343.5.898438-.300781 1.800781-.703125 2.597657-1.300781 2.203124-1.800781 2.800781-4.902344 1.601562-7.5-.5-.902344-1.101562-1.800781-1.898438-2.601563-.800781-.800781-1.601562-1.5-2.601562-2-2-1-4.199219-1.300781-6.398438-.898437-2.101562.597656-3.703124 1.898437-4.703124 3.699219zm0 0" fill="#428dff"/></svg>